<svg width="144" height="56" viewBox="0 0 144 56" fill="none" xmlns="http://www.w3.org/2000/svg">
<path d="M103.367 36.159L100.034 31.3806C99.8939 31.3961 99.6841 31.4039 99.4044 31.4039H95.7216V36.159H92.6914V19.8427H99.4044C100.818 19.8427 102.046 20.0757 103.087 20.5419C104.144 21.0081 104.952 21.6763 105.511 22.5465C106.071 23.4167 106.35 24.4501 106.35 25.6466C106.35 26.8742 106.047 27.9309 105.441 28.8166C104.851 29.7024 103.996 30.3628 102.877 30.7979L106.63 36.159H103.367ZM103.297 25.6466C103.297 24.6055 102.955 23.8052 102.271 23.2458C101.588 22.6864 100.585 22.4066 99.2645 22.4066H95.7216V28.9099H99.2645C100.585 28.9099 101.588 28.6301 102.271 28.0707C102.955 27.4958 103.297 26.6877 103.297 25.6466Z" fill="black"/>
<path d="M54.3965 19.8427H61.529C63.2694 19.8427 64.8156 20.1845 66.1675 20.8682C67.5195 21.5364 68.5684 22.4921 69.3142 23.7353C70.0601 24.9629 70.4331 26.3847 70.4331 28.0008C70.4331 29.6169 70.0601 31.0465 69.3142 32.2897C68.5684 33.5173 67.5195 34.4729 66.1675 35.1567C64.8156 35.8249 63.2694 36.159 61.529 36.159H54.3965V19.8427ZM61.3892 33.595C62.5857 33.595 63.6346 33.3696 64.5359 32.919C65.4527 32.4528 66.152 31.8002 66.6337 30.961C67.131 30.1064 67.3796 29.1196 67.3796 28.0008C67.3796 26.882 67.131 25.903 66.6337 25.0639C66.152 24.2092 65.4527 23.5566 64.5359 23.1059C63.6346 22.6397 62.5857 22.4066 61.3892 22.4066H57.4267V33.595H61.3892Z" fill="black"/>
<path d="M33.167 36.159L27.4563 22.8728L21.7689 36.159H18.6455L25.9878 19.8427H28.9714L36.337 36.159H33.167Z" fill="black"/>
<path d="M51.922 19.8427V36.159H49.428L40.4307 25.1105V36.159H37.4238V19.8427H39.9179L48.9152 30.8911V19.8427H51.922Z" fill="black"/>
<path fill-rule="evenodd" clip-rule="evenodd" d="M76.9481 35.319C78.2845 36.0338 79.784 36.3912 81.4467 36.3912C83.1094 36.3912 84.609 36.0338 85.9453 35.319C87.2817 34.5887 88.3306 33.5864 89.0921 32.3122C89.8535 31.0379 90.2342 29.6006 90.2342 28C90.2342 26.9402 90.0673 25.9519 89.7334 25.0352L91.2126 24.1813L89.6624 21.4964L88.1249 22.3841C87.512 21.7136 86.7855 21.1537 85.9453 20.7043C84.609 19.9739 83.1094 19.6088 81.4467 19.6088C79.784 19.6088 78.2845 19.9739 76.9481 20.7043C75.6117 21.4191 74.5628 22.4214 73.8014 23.7111C73.0399 24.9854 72.6592 26.415 72.6592 28C72.6592 29.0714 72.8332 30.0754 73.1811 31.0119L71.7158 31.8579L73.2659 34.5428L74.8021 33.6559C75.4079 34.3138 76.1232 34.8682 76.9481 35.319ZM77.3841 32.1651C77.7163 32.4903 78.0915 32.7724 78.5098 33.0114C79.38 33.4932 80.359 33.734 81.4467 33.734C82.5345 33.734 83.5134 33.4932 84.3836 33.0114C85.2538 32.5142 85.9376 31.8305 86.4348 30.9602C86.9321 30.0745 87.1807 29.0878 87.1807 28C87.1807 27.5101 87.1303 27.0422 87.0294 26.5964L77.3841 32.1651ZM75.8751 29.4566L85.5397 23.8766C85.2002 23.5388 84.8148 23.2505 84.3836 23.0119C83.5134 22.5146 82.5345 22.266 81.4467 22.266C80.359 22.266 79.38 22.5146 78.5098 23.0119C77.6396 23.4936 76.9558 24.1773 76.4586 25.0631C75.9613 25.9333 75.7127 26.9123 75.7127 28C75.7127 28.5075 75.7668 28.993 75.8751 29.4566Z" fill="#FA9C11"/>
<path d="M122.185 36.159L116.474 22.8728L110.786 36.159H107.663L115.005 19.8427H117.989L125.355 36.159H122.185Z" fill="black"/>
</svg>
